<svg id="OBJECTS" xmlns="http://www.w3.org/2000/svg" xmlns:xlink="http://www.w3.org/1999/xlink" viewBox="0 0 342.49 327.18"><defs><style>.cls-1{fill:#e6ecf2;}.cls-2{fill:#b5d8ff;}.cls-3{fill:#0046c9;}.cls-4{fill:#007aff;}.cls-20,.cls-5{fill:none;}.cls-5{stroke:#fff;stroke-linecap:round;stroke-linejoin:round;}.cls-6{fill:#eaeaea;}.cls-7{fill:#e6b38e;}.cls-8{fill:url(#Безымянный_градиент_20);}.cls-9{fill:#1c1717;}.cls-10{fill:#de9d85;}.cls-11{fill:#f8b791;}.cls-12{fill:#383131;}.cls-13{fill:#ff2922;}.cls-14{fill:url(#Безымянный_градиент_17);}.cls-15{fill:#fff;}.cls-16{fill:#efc2ac;}.cls-17{fill:#1d1d18;}.cls-18{fill:#ffbc08;}.cls-19{fill:#ffc426;}.cls-20{stroke:#473e3e;stroke-miterlimit:10;stroke-width:0.5px;fill-rule:evenodd;}.cls-21{fill:#ff7600;}.cls-22{fill:#005ef0;}.cls-23{fill:#0f3872;}.cls-24{fill:#003ba4;}.cls-25{fill:#b9ddff;}.cls-26{fill:#db241e;}.cls-27{fill:#f8a677;}.cls-28{fill:#e2d4b7;}.cls-29{fill:#ffe200;}.cls-30{fill:#f0d400;}.cls-31{fill:#e9ede4;}.cls-32{fill:#f8a372;}.cls-33{fill:#2b4159;}.cls-34{fill:#b7c0c6;}.cls-35{fill:#8b99a3;}.cls-36{fill:#e5ecf1;}</style><linearGradient id="Безымянный_градиент_20" x1="187.63" y1="212.8" x2="204.94" y2="212.8" gradientUnits="userSpaceOnUse"><stop offset="0" stop-color="#ff2922"/><stop offset="0.99" stop-color="#9e2922"/></linearGradient><linearGradient id="Безымянный_градиент_17" x1="173.57" y1="197.7" x2="199.03" y2="225.05" gradientUnits="userSpaceOnUse"><stop offset="0" stop-color="#ff2922"/><stop offset="1" stop-color="#c82922"/></linearGradient></defs><title>banner-vector</title><ellipse class="cls-1" cx="181.42" cy="294.56" rx="44.55" ry="4.85"/><path class="cls-2" d="M99.75,111.81c-.61-.78-4.31-1.59-8.55-1.67A36.82,36.82,0,0,0,87,100.26c2.72-2.51,5.32-5.45,5-7.26-.61-3.67-8.56-9.92-10.12-10.12-1-.13-4.29,2-7.39,5a36.81,36.81,0,0,0-9.83-4.12c.15-3.71-.08-7.64-1.58-8.72-3-2.17-13.07-1-14.32,0-.78.6-1.59,4.29-1.67,8.51a36.79,36.79,0,0,0-10.16,4c-2.45-2.61-5.24-5-7-4.73C26.27,83.44,20,91.4,19.82,93c-.12.93,1.71,3.84,4.4,6.74a36.83,36.83,0,0,0-4.61,10.45c-3.35-.06-6.64.26-7.6,1.61-2.17,3-1,13.07,0,14.32.54.7,3.58,1.42,7.25,1.62a36.8,36.8,0,0,0,4.4,11c-2.25,2.23-4.13,4.61-3.88,6.16.61,3.67,8.56,9.92,10.12,10.12.86.11,3.41-1.45,6.08-3.81a36.81,36.81,0,0,0,11.09,4.55c0,3.16.34,6.16,1.61,7.07,3,2.17,13.07,1,14.32,0,.7-.54,1.43-3.59,1.62-7.27a36.82,36.82,0,0,0,10.72-4.68c2.32,2.39,4.84,4.45,6.46,4.19,3.67-.61,9.92-8.56,10.12-10.12.12-.93-1.73-3.87-4.44-6.78a36.78,36.78,0,0,0,4.05-10.42c3.55.11,7.18-.17,8.2-1.6C101.92,123.11,100.72,113.06,99.75,111.81ZM55.41,136.22A16.56,16.56,0,1,1,72,119.66,16.56,16.56,0,0,1,55.41,136.22Z" transform="translate(-10.8 -11.62)"/><path class="cls-3" d="M234,272.1a34.59,34.59,0,0,1-34.53,34.62c-1.2,0-13.35.09-14.52,0-17.49-1.78-20.1-16.69-20.1-34.59,0-16.75-1.44-29.24,14.36-32.46,2.26-.46,17.87-2.14,20.26-2.14A34.54,34.54,0,0,1,234,272.1Zm0,0" transform="translate(-10.8 -11.62)"/><path class="cls-3" d="M281.12,189.78a14,14,0,0,0-1.55-1.5l-1.5-1.43a4.13,4.13,0,0,0-.89-.68,110.42,110.42,0,0,0-152.61,3.54l-4.92,5-6.81,6.76a21.26,21.26,0,0,0,30.06,30.06l11.73-11.66a68.33,68.33,0,0,1,96.44-.07l8.45,8.19a21.07,21.07,0,0,0,29.8-29.8Zm0,0" transform="translate(-10.8 -11.62)"/><path class="cls-3" d="M338.82,147.83l-7-7a.07.07,0,0,0-.07-.07l-5.6-5.59a21.6,21.6,0,0,0-3.12-2.53c-71.4-62.67-180-60.75-249.19,5.73-.33.35-.68.56-1,.89L60.11,151.93a19.39,19.39,0,0,0,27.43,27.41l12.67-12.69a1,1,0,0,0,.28-.26c55.92-54,144.56-54.36,201-1.1l10,10a19.41,19.41,0,0,0,27.41-27.48Zm0,0" transform="translate(-10.8 -11.62)"/><path class="cls-4" d="M324.8,149.25l-7-7a.07.07,0,0,0-.07-.07l-5.6-5.59A21.59,21.59,0,0,0,309,134c-71.4-62.67-180-60.75-249.19,5.73-.33.35-.68.56-1,.89L46.1,153.36a19.39,19.39,0,0,0,27.43,27.41l12.67-12.69a1,1,0,0,0,.28-.26c55.92-54,144.56-54.36,201-1.1l10,10a19.41,19.41,0,0,0,27.41-27.48Zm0,0" transform="translate(-10.8 -11.62)"/><path class="cls-4" d="M220,272.82a33.86,33.86,0,1,1-33.81-33.88A33.87,33.87,0,0,1,220,272.82Zm0,0" transform="translate(-10.8 -11.62)"/><path class="cls-4" d="M267.11,191.2a14,14,0,0,0-1.55-1.5l-1.5-1.43a4.13,4.13,0,0,0-.89-.68,110.42,110.42,0,0,0-152.61,3.54l-4.92,5-6.81,6.76a21.26,21.26,0,0,0,30.06,30.06l11.73-11.66A68.33,68.33,0,0,1,237,221.2l8.45,8.19a21.07,21.07,0,0,0,29.8-29.8Zm0,0" transform="translate(-10.8 -11.62)"/><path class="cls-5" d="M144.89,178.22a113.83,113.83,0,0,0-28.37,20.91m39.24-25.75,41-6.59a104.45,104.45,0,0,0-41,6.59m115.32,25.82" transform="translate(-10.8 -11.62)"/><path class="cls-5" d="M238.07,105.57c-61.33-18.62-126.27-1-177.27,51.2M309,149A177.82,177.82,0,0,0,265.83,117m59,42.29" transform="translate(-10.8 -11.62)"/><path class="cls-5" d="M184,246.88c0,.12,0,.23-.06.35a25.17,25.17,0,0,1,5.5-.48,25.53,25.53,0,0,1,12,47.59h0c0,.11,0,.23.05.35a25.87,25.87,0,0,0-12.08-48.27A25.5,25.5,0,0,0,184,246.88Z" transform="translate(-10.8 -11.62)"/><path class="cls-5" d="M168.41,287.36a25.48,25.48,0,0,1-4.93-15.72c0-.11,0-.23,0-.34l-.33.1c0,.08,0,.15,0,.23a25.81,25.81,0,0,0,5,15.87Z" transform="translate(-10.8 -11.62)"/><path class="cls-6" d="M184.42,182.2s4.48,1.55,5.78,2.65c.62.52.95,5.07.95,5.07l-9.77-4.76Z" transform="translate(-10.8 -11.62)"/><path class="cls-7" d="M221.6,292.56l.67,4h0a3.87,3.87,0,0,1-4.19.14l-.23-.14-1-4Z" transform="translate(-10.8 -11.62)"/><path class="cls-8" d="M189.39,199.58c3.57,11.78,15.55,29.87,15.55,29.87l-9.46-3.87-6.69-15.45S185.82,187.8,189.39,199.58Z" transform="translate(-10.8 -11.62)"/><path class="cls-9" d="M215.11,246.9l7.46,46h-6.63s-14.9-41.4-16.47-53.58c0-6.89,15.06,0,15.06,0Z" transform="translate(-10.8 -11.62)"/><polygon class="cls-10" points="179.6 169.37 177.12 175.78 171.76 171.9 175.38 164.34 179.6 169.37"/><path class="cls-11" d="M192.42,182.05a3.64,3.64,0,0,0,2.09-.06c3.11-3,2.35-12.88,2.35-12.88l-3.47-2.4-5.47,2-1.59,6.2a5.19,5.19,0,0,0,1.26,4.77h0A10.13,10.13,0,0,0,192.42,182.05Z" transform="translate(-10.8 -11.62)"/><path class="cls-12" d="M200,163.35a5.14,5.14,0,0,0-2.23-1.52,12.6,12.6,0,0,0-10.65.48,4,4,0,0,0-1.51,1.22,2,2,0,0,0-.09.18,2.16,2.16,0,0,0-1.53-.46,3.15,3.15,0,0,0-2.44,2.12,4.51,4.51,0,0,0,2.19,5.45,2.33,2.33,0,0,0-1.56,2.88,3,3,0,0,0,2.78,2,.93.93,0,0,0,.87-.34c.12.2.25.4.38.59l2.7-5.15a2.14,2.14,0,0,1,2.69-1.07,17,17,0,0,0,2.57.79c2.15.45,6.15.41,6.83-2.86A6.06,6.06,0,0,0,200,163.35Z" transform="translate(-10.8 -11.62)"/><path class="cls-11" d="M185.71,172.21a1.65,1.65,0,0,1,2,.6c.52.65.48,1.44-.09,1.76a1.65,1.65,0,0,1-2-.6C185.1,173.32,185.14,172.53,185.71,172.21Z" transform="translate(-10.8 -11.62)"/><path class="cls-9" d="M222.4,296.15s0,4.27,8.6,6.84c1.76.53,1.19,1,1.52,1.79h-9.88l-3.87-4.35-1.2,1-2.79-2.74s.48-4,2.61-4C219.14,295.32,222.4,296.15,222.4,296.15Z" transform="translate(-10.8 -11.62)"/><path class="cls-7" d="M198,291.3l-1.6,3.7h0a3.87,3.87,0,0,1-4-1.22l-.18-.21,1.3-3.8Z" transform="translate(-10.8 -11.62)"/><path class="cls-13" d="M189.1,185.6s.68-1.05-5.39-4.19c-9.15,9.15-12.15,44.17-12.15,44.17h23.92C196.29,205.6,189.1,185.6,189.1,185.6Z" transform="translate(-10.8 -11.62)"/><path class="cls-11" d="M212.73,224.63a1.06,1.06,0,0,0-.5-1.15l-3.9-2.26a4.53,4.53,0,0,0-3.19-.52l-4.23.17-.55.67-.88,3.74,1.35-.33,2.68.07s5.07,4.7,7.58.61c.1,4.35,1.38,4,1.38,4Z" transform="translate(-10.8 -11.62)"/><path class="cls-12" d="M171.56,225.58l-.36,3v.12a11.7,11.7,0,0,0,8.58,12.45,105.41,105.41,0,0,0,24.63,4.36c-9,11.58-11.52,44.09-11.52,44.09l5.81,2.11,22.45-53.47a5.91,5.91,0,0,0-4.22-8.07l-21.44-4.57Z" transform="translate(-10.8 -11.62)"/><path class="cls-14" d="M186.52,197a48.06,48.06,0,0,0-7.07,8.26,3.12,3.12,0,0,0,.28,3.7c5,5.74,22.73,11.25,22.73,11.25l-1.15,6.47s-25.19-5-34.11-13.9c-9.15-9.18,14.51-28.36,14.51-28.36" transform="translate(-10.8 -11.62)"/><polygon class="cls-9" points="211.35 220.82 218.8 194.17 217.43 193.78 210.32 219.2 188.92 215.48 188.68 216.88 211.35 220.82"/><path class="cls-12" d="M189.5,185.34a5.14,5.14,0,0,1,.94,2.4,1,1,0,0,1-.12.59.48.48,0,0,1-.52.23.68.68,0,0,1-.34-.33,4.48,4.48,0,0,1-.64-2.09C188.79,185.66,188.95,184.42,189.5,185.34Z" transform="translate(-10.8 -11.62)"/><path class="cls-15" d="M183.55,181.38s4.23,2.13,5.39,3.39c.55.6.27,5.15.27,5.15l-9.06-6Z" transform="translate(-10.8 -11.62)"/><path class="cls-12" d="M189.79,188.56l2.73,25.31,2.85,3.12.17-3.81s-2.08-12.81-3.15-17.31-2-8.13-2-8.13Z" transform="translate(-10.8 -11.62)"/><path class="cls-12" d="M196.76,294.18s-.34,4.31,8.24,6.87c1.76.53,1.19,1,1.52,1.79h-9.88l-3.87-4.35-1.2,1-2.79-2.74s1.3-4,3.42-4C194,293.39,196.76,294.18,196.76,294.18Z" transform="translate(-10.8 -11.62)"/><ellipse class="cls-1" cx="266.08" cy="335.31" rx="19.11" ry="3.44" transform="translate(-21.19 -3.1) rotate(-1.8)"/><path class="cls-16" d="M273.71,324l.43,11.24,4.6-1.77s1.92-1.49.23-1.25c-2.47.35-2-.71-2.14-2.73s.13-5.9.13-5.9Z" transform="translate(-10.8 -11.62)"/><path class="cls-17" d="M279.32,332.21a8.81,8.81,0,0,1-1.06.89,12.71,12.71,0,0,1-2.67,1.33,5.74,5.74,0,0,1-1.51.13s-.31,1.17.46,1.07a28.27,28.27,0,0,0,5.13-2.33C280.2,332.88,280.26,332.26,279.32,332.21Z" transform="translate(-10.8 -11.62)"/><path class="cls-12" d="M272.8,262l.36,30.43.47,32.26,3.92-.33s2.94-32.58,3.19-35.46,4.4-22.11,1-27.59S272.8,262,272.8,262Z" transform="translate(-10.8 -11.62)"/><polygon class="cls-16" points="254.18 313.67 254.07 322.44 248.57 323.06 246.11 322.83 250.93 321.15 251.24 313.84 254.18 313.67"/><path class="cls-17" d="M264.48,335.2l-1.2.19-.22-.33-4.56.21-2.23-.51s-.1-.38.1-.51a12.53,12.53,0,0,1,3-.64s-.3.45,0,.63a17.13,17.13,0,0,0,4-.17c1.29-.26,1.69-.66,1.73-.55C265.18,333.81,264.48,335.2,264.48,335.2Z" transform="translate(-10.8 -11.62)"/><path class="cls-12" d="M261.3,261.76l.3,33.18-1.23,32.61,5,.24S269,294.86,269.43,292s5.63-25.78,2.7-31.5S261.3,261.76,261.3,261.76Z" transform="translate(-10.8 -11.62)"/><path class="cls-16" d="M261.9,245.06s1.25.13.77,6.84A138.29,138.29,0,0,1,260,268.37l-.2-15.58S259.94,246.82,261.9,245.06Z" transform="translate(-10.8 -11.62)"/><path class="cls-16" d="M260.78,263.12c-.14,3.2,1.25,4.62,1.65,5.91a23.4,23.4,0,0,0,1,2.58c-1.21-.76-1.2-1.8-1.58-2.33s-.18-.39-.31.74c-.07.65.92,1.83,1.45,2.66a2.73,2.73,0,0,1,.49,1.18,13.14,13.14,0,0,1-1.81-2,16.32,16.32,0,0,1-1.86-3.3,13.76,13.76,0,0,1,.07-4.35C260.18,262.55,260.89,260.81,260.78,263.12Z" transform="translate(-10.8 -11.62)"/><path class="cls-18" d="M265.13,235.46l-1.2,18.74,0,1.09-5.36-.14s1.1-14.47,1.31-15.18a59.92,59.92,0,0,0,.45-7.85c-.11-1.08,0-6.52,3.53-6.09S265.13,235.46,265.13,235.46Z" transform="translate(-10.8 -11.62)"/><path class="cls-16" d="M281.12,246.46s-1.24.21-.34,6.88a138.28,138.28,0,0,0,3.74,16.26L283.74,254S283.18,248.09,281.12,246.46Z" transform="translate(-10.8 -11.62)"/><path class="cls-16" d="M283.36,264.41c.34,3.18-1,4.69-1.28,6a23.43,23.43,0,0,1-.85,2.64c1.16-.83,1.09-1.87,1.43-2.42s.16-.4.36.72c.11.64-.8,1.88-1.28,2.75a2.73,2.73,0,0,0-.41,1.2,13.14,13.14,0,0,0,1.68-2.07,16.32,16.32,0,0,0,1.65-3.41,13.75,13.75,0,0,0-.34-4.34C283.93,263.8,283.11,262.12,283.36,264.41Z" transform="translate(-10.8 -11.62)"/><path class="cls-18" d="M277.29,237.08l2.37,18.63,0,1.09,5.34-.48s-2-14.37-2.26-15.06a59.89,59.89,0,0,1-.94-7.81c0-1.09-.36-6.51-3.91-5.85S277.29,237.08,277.29,237.08Z" transform="translate(-10.8 -11.62)"/><path class="cls-19" d="M270.84,224.37s-6.09.6-7.51,1.27-.89,7.79.2,13,.87,11.15-.37,14.5a59.53,59.53,0,0,0-2.08,9.69l21.39-1s-5.27-13-5.43-18,.82-16.69.68-17.82S272.18,224.32,270.84,224.37Z" transform="translate(-10.8 -11.62)"/><path class="cls-12" d="M261,215.22a8.73,8.73,0,0,1,.27,3.35,8.63,8.63,0,0,1-1.71,2.81,9,9,0,0,0-1.47,7.59,6.87,6.87,0,0,0,5.71,4.92,10.83,10.83,0,0,0,1.65,6.59,5.68,5.68,0,0,0,6,2.39c2.2-.68,3.58-3.57,2.31-5.49a4.27,4.27,0,0,0,4.71,1.09c1.54-.76,2.08-3.22.71-4.26a4.55,4.55,0,0,0,3.44-8.18c-1.44-1-3.49-1.24-4.52-2.68-1.76-2.46.94-6.16-.47-8.83-.79-1.5-2.73-2.31-3.06-4a15.29,15.29,0,0,1,0-1.85c-.33-4.38-6.21-3.94-9.07-2.67C261.92,207.61,260.42,211.29,261,215.22Z" transform="translate(-10.8 -11.62)"/><path class="cls-20" d="M266.91,207.88c-1.62,3.66-3,7.94-1.26,11.55,1,2.16,3,3.68,5,5.05s4,2.74,5.32,4.76,1.59,4.9,0,6.69" transform="translate(-10.8 -11.62)"/><path class="cls-20" d="M269,207.28c.72,1.11.47,2.56.28,3.87s-.21,2.85.79,3.72a6.4,6.4,0,0,0,2.33,1,4.85,4.85,0,0,1,2.31,1.53,3.19,3.19,0,0,1,.67,2.63" transform="translate(-10.8 -11.62)"/><path class="cls-20" d="M262.27,222.39a8.84,8.84,0,0,0,2.21,6.85c.65.71,1.41,1.32,2,2a8.16,8.16,0,0,1,1.67,7.58" transform="translate(-10.8 -11.62)"/><path class="cls-18" d="M317.84,197.34c-5.77,5.24-14,6.78-21.69,5.74a28.62,28.62,0,0,1-15.9-7.12c-4.33-4.09-7.05-10.17-6.43-16.17.59-5.67,4.07-10.75,8.62-14A32.94,32.94,0,0,1,298,160.33c5.41-.62,11.07-.32,16,2C326.42,168.24,327.74,188.34,317.84,197.34Z" transform="translate(-10.8 -11.62)"/><polygon class="cls-18" points="285.31 186.16 273.71 201.04 276.93 176.95 285.31 186.16"/><circle class="cls-15" cx="287.93" cy="180.46" r="2.91" transform="translate(-16.32 -2.5) rotate(-1.8)"/><circle class="cls-15" cx="299.74" cy="181.54" r="2.91" transform="translate(-16.35 -2.12) rotate(-1.8)"/><circle class="cls-15" cx="311.61" cy="182.63" r="2.91" transform="translate(-16.38 -1.75) rotate(-1.8)"/><path class="cls-12" d="M65.51,217.19c-2.65,0-4.39,3.15-4.39,3.15l.68,10.54-4-3.7s-1.69-6,.08-10.67c1.38-2.92,5.37-3.2,7.9-1.34a7.05,7.05,0,0,1,2.7,3.93C68.63,219.9,67.28,217.19,65.51,217.19Z" transform="translate(-10.8 -11.62)"/><path class="cls-3" d="M287.7,61.73c-7.86,6.71-18.91,8.4-29,6.71-7.68-1.29-15.22-4.5-20.79-10.1S229,44.56,230.06,36.62c1-7.49,5.85-14.08,12-18.21s13.53-6,20.86-6.6,14.7,0,21.17,3.36C300.29,23.49,301.21,50.2,287.7,61.73Z" transform="translate(-10.8 -11.62)"/><polygon class="cls-3" points="248.07 49.77 232.07 69.03 237.34 37.22 248.07 49.77"/><circle class="cls-15" cx="237.95" cy="26.47" r="3.86"/><circle class="cls-15" cx="253.56" cy="28.39" r="3.86"/><circle class="cls-15" cx="269.25" cy="30.33" r="3.86"/><rect class="cls-18" x="159.66" y="54" width="48.75" height="39" rx="12.87" ry="12.87"/><path class="cls-15" d="M192.13,74.79l8.69,8.69a2.33,2.33,0,0,1,0,3.29l-8.69,8.69a2.33,2.33,0,0,1-4-1.64V76.43A2.33,2.33,0,0,1,192.13,74.79Z" transform="translate(-10.8 -11.62)"/><path class="cls-13" d="M342.91,71.46c-5.16-2.65-11.13-3.15-16.87-2.68s-11.72,2-16.63,5.26-8.77,8.54-9.57,14.51c-.86,6.33,1.82,12.84,6.26,17.31a26.16,26.16,0,0,0,6.15,4.53L310,123.65l8.81-10.6a36.68,36.68,0,0,0,3.81.87c8,1.35,16.85,0,23.12-5.35C356.56,99.37,355.82,78.08,342.91,71.46Z" transform="translate(-10.8 -11.62)"/><path class="cls-15" d="M319.81,84.2c4-.72,5.81,1.64,6.31,2.46.5-.82,2.28-3.15,6.31-2.44,5.63,1,4.84,6.6,4.84,6.6s.67,4.45-10.26,10.27l-.83.46v.08h0l-.07,0H326v-.05l-.83-.46C314.26,95.24,315,90.79,315,90.79S314.13,85.21,319.81,84.2Z" transform="translate(-10.8 -11.62)"/><path class="cls-15" d="M326.25,86.5a5.67,5.67,0,0,1,6.17-2.22c5.22,1,4.84,6.6,4.84,6.6s.67,4.45-10.26,10.27l-.77.42Z" transform="translate(-10.8 -11.62)"/><path class="cls-21" d="M96.85,51.64,92,33.79l-1-3.86h0a2,2,0,0,0-2.45-1.41l-18.34,5A2,2,0,0,0,68.76,36h0l1,3.86,3.78,13.94c-.1,0-.2,0-.3-.06a5,5,0,0,0-5.42,4.55,5.08,5.08,0,0,0,4.55,5.42,5,5,0,0,0,5.24-6.29h0L73.14,40.63a1.66,1.66,0,0,1,1.17-2L87.51,35a1.66,1.66,0,0,1,2,1.17l3.35,12.34-.25,0A5,5,0,0,0,87.23,53a5.08,5.08,0,0,0,4.55,5.42,5,5,0,0,0,5.41-4.55A5,5,0,0,0,96.85,51.64Z" transform="translate(-10.8 -11.62)"/><path class="cls-22" d="M267.38,147l0-.06Z" transform="translate(-10.8 -11.62)"/><path class="cls-23" d="M267.37,147.07h0v0l0,0Z" transform="translate(-10.8 -11.62)"/><path class="cls-23" d="M267.42,147a1.72,1.72,0,0,0,.12-.25h0A1.76,1.76,0,0,1,267.42,147Z" transform="translate(-10.8 -11.62)"/><path class="cls-22" d="M267.26,145.4l.06,0Z" transform="translate(-10.8 -11.62)"/><path class="cls-22" d="M267.31,145.45a1.14,1.14,0,0,1,.22,1.29h0A1.12,1.12,0,0,0,267.31,145.45Z" transform="translate(-10.8 -11.62)"/><path class="cls-3" d="M235,125.79a1.75,1.75,0,0,0-.24.29,1.21,1.21,0,0,0,.12,1.67l30.93,19.94a1.21,1.21,0,0,0,1.57-.58,1.75,1.75,0,0,0,.17-.34,1.12,1.12,0,0,1-1.26.33,1.14,1.14,0,0,0,1.26-.33,1.29,1.29,0,0,0,0-1l-8.06-16.59a6.39,6.39,0,0,0-.42-.74,5.94,5.94,0,0,0-.5-.65,5.57,5.57,0,0,0-2.56-1.65,6,6,0,0,0-.79-.18,6.4,6.4,0,0,0-.85-.08l-18.44-.49a1.29,1.29,0,0,0-.91.41,1.14,1.14,0,0,0,.22,1.29A1.12,1.12,0,0,1,235,125.79Z" transform="translate(-10.8 -11.62)"/><rect class="cls-24" x="227.9" y="135.66" width="38.77" height="13.44" transform="translate(105.78 -122.89) rotate(32.81)"/><polygon class="cls-15" points="242.46 150.49 216.08 133.49 232.77 107.6 253.35 120.86 255.41 130.39 242.46 150.49"/><polygon class="cls-25" points="253.35 120.86 255.41 130.39 249.61 126.66 253.35 120.86"/><path class="cls-25" d="M261.52,141.94,242,129.33a.54.54,0,0,1-.16-.74h0a.54.54,0,0,1,.74-.16L262.1,141a.54.54,0,0,1,.16.74h0A.54.54,0,0,1,261.52,141.94Z" transform="translate(-10.8 -11.62)"/><path class="cls-25" d="M259.69,144.77l-19.56-12.61a.54.54,0,0,1-.16-.74h0a.54.54,0,0,1,.74-.16l19.56,12.61a.54.54,0,0,1,.16.74h0A.54.54,0,0,1,259.69,144.77Z" transform="translate(-10.8 -11.62)"/><path class="cls-25" d="M247.63,141l-9.32-6a.54.54,0,0,1-.16-.74h0a.54.54,0,0,1,.74-.16l9.32,6a.54.54,0,0,1,.16.74h0A.54.54,0,0,1,247.63,141Z" transform="translate(-10.8 -11.62)"/><path class="cls-3" d="M253.87,165.26,247,147.8a3.53,3.53,0,0,0-4.46-2.92l-18.79,1a.81.81,0,0,1-.51-.13h0l30.94,19.94h0A.81.81,0,0,1,253.87,165.26Z" transform="translate(-10.8 -11.62)"/><path class="cls-4" d="M242.37,144.52l-.17-.37-7.61-16.77a1.41,1.41,0,0,1,.16-1.33h0l-11.6,18a1.22,1.22,0,0,0,.1,1.67.81.81,0,0,0,.51.13l18.79-1Z" transform="translate(-10.8 -11.62)"/><path class="cls-4" d="M267.36,147.07a1.41,1.41,0,0,1-1.15.7l-18.39.06h-.33l-.48,0,6.85,17.46a.81.81,0,0,0,.33.41,1.22,1.22,0,0,0,1.56-.6l11.6-18Z" transform="translate(-10.8 -11.62)"/><path class="cls-22" d="M192.16,23.26l0-.07Z" transform="translate(-10.8 -11.62)"/><path class="cls-23" d="M192.17,23.28h0v0Z" transform="translate(-10.8 -11.62)"/><path class="cls-23" d="M192.15,23.18a1.73,1.73,0,0,0-.1-.26h0A1.76,1.76,0,0,1,192.15,23.18Z" transform="translate(-10.8 -11.62)"/><path class="cls-22" d="M190.91,22.2h0Z" transform="translate(-10.8 -11.62)"/><path class="cls-22" d="M191,22.19a1.14,1.14,0,0,1,1.07.74h0A1.12,1.12,0,0,0,191,22.19Z" transform="translate(-10.8 -11.62)"/><path class="cls-3" d="M154.29,31.52a1.75,1.75,0,0,0,0,.37c.16.72.73,1.2,1.27,1.08l35.89-8.13a1.21,1.21,0,0,0,.68-1.52,1.74,1.74,0,0,0-.12-.36,1.12,1.12,0,0,1-.65,1.13,1.14,1.14,0,0,0,.65-1.13,1.29,1.29,0,0,0-.72-.7l-17.49-5.86a6.39,6.39,0,0,0-.83-.22,6,6,0,0,0-.81-.1,5.57,5.57,0,0,0-3,.67,6,6,0,0,0-.69.44,6.39,6.39,0,0,0-.65.55L154.64,30.58a1.29,1.29,0,0,0-.35.94,1.14,1.14,0,0,0,1.07.74A1.12,1.12,0,0,1,154.29,31.52Z" transform="translate(-10.8 -11.62)"/><rect class="cls-24" x="155.38" y="27.62" width="38.77" height="13.44" transform="translate(-14.06 27.83) rotate(-12.76)"/><polygon class="cls-15" points="182.23 32.27 151.63 39.2 144.83 9.15 168.7 3.75 176.95 8.95 182.23 32.27"/><polygon class="cls-25" points="168.7 3.75 176.95 8.95 170.22 10.48 168.7 3.75"/><path class="cls-25" d="M184.41,23.87,161.71,29a.54.54,0,0,1-.64-.4h0a.54.54,0,0,1,.4-.64l22.7-5.14a.54.54,0,0,1,.64.4h0A.54.54,0,0,1,184.41,23.87Z" transform="translate(-10.8 -11.62)"/><path class="cls-25" d="M185.15,27.15l-22.7,5.14a.54.54,0,0,1-.64-.4h0a.54.54,0,0,1,.4-.64l22.69-5.14a.54.54,0,0,1,.64.4h0A.54.54,0,0,1,185.15,27.15Z" transform="translate(-10.8 -11.62)"/><path class="cls-25" d="M174,33.13,163.2,35.58a.54.54,0,0,1-.64-.4h0a.54.54,0,0,1,.4-.64l10.82-2.45a.54.54,0,0,1,.64.4h0A.54.54,0,0,1,174,33.13Z" transform="translate(-10.8 -11.62)"/><path class="cls-3" d="M195.71,45.66l-17.26-7.33a3.53,3.53,0,0,0-5.21,1.14l-12.46,14.1a.81.81,0,0,1-.45.27h0l35.9-8.13h0A.81.81,0,0,1,195.71,45.66Z" transform="translate(-10.8 -11.62)"/><path class="cls-4" d="M172.85,39.35l-.38-.14-17.31-6.31a1.41,1.41,0,0,1-.84-1.05h0l4.73,20.88c.17.76.75,1.2,1.26,1.1a.81.81,0,0,0,.45-.27l12.46-14.1Z" transform="translate(-10.8 -11.62)"/><path class="cls-4" d="M192.17,23.29a1.41,1.41,0,0,1-.3,1.31L179,37.77l-.23.23-.36.32,17.26,7.33a.81.81,0,0,0,.52,0,1.22,1.22,0,0,0,.67-1.54l-4.73-20.88Z" transform="translate(-10.8 -11.62)"/><ellipse class="cls-1" cx="67.13" cy="318.42" rx="28.23" ry="3.44"/><polygon class="cls-11" points="68.14 304.52 69.97 314.47 76.28 316.1 79.64 316.2 73.13 312.95 71.65 304.47 68.14 304.52"/><path class="cls-17" d="M80.66,327.72l1.32.1.71-.92,5.6,1.66,3.56.28a2.91,2.91,0,0,0-.48-.74,20,20,0,0,0-3.23-1.5s.05.81-.36.92a29.93,29.93,0,0,1-5.19-1.33c-1.58-.61-1.94-1.1-2-1C80.31,325.41,80.66,327.72,80.66,327.72Z" transform="translate(-10.8 -11.62)"/><path class="cls-26" d="M76.84,256.8l7.92,32.82-1.67,28.64L78.23,318c-2.25-28.51.19-23.79-.9-28.13-.7-2.76-12.3-27.21-9.92-33.07S76.84,256.8,76.84,256.8Z" transform="translate(-10.8 -11.62)"/><polygon class="cls-11" points="44.02 307.08 41.35 316.94 41.58 317.66 47.89 319.29 51.25 319.39 44.74 316.14 47.89 306.46 44.02 307.08"/><path class="cls-17" d="M52.27,330.91l1.32.1.71-.92,5.06,1.43,4.3.21a.77.77,0,0,0-.18-.48,18.94,18.94,0,0,0-3.79-1.5s.13,1-.28,1.07a31.25,31.25,0,0,1-5.22-1.43c-1.58-.61-1.94-1.1-2-1C51.92,328.59,52.27,330.91,52.27,330.91Z" transform="translate(-10.8 -11.62)"/><path class="cls-13" d="M63.44,261.74l-1.67,26.67s-3.22,6.52-3.73,9.11c-1.14,5.83-4.6,23.32-4.6,23.32l5.17,1S68.07,291.73,69,289.05s8.9-25.11,6.68-31.1S63.44,261.74,63.44,261.74Z" transform="translate(-10.8 -11.62)"/><path class="cls-12" d="M69,220.87c.14,1.55-.59,3.15-.13,4.64.62,2,3.07,2.82,4.2,4.59a4.55,4.55,0,0,1-1.45,6,5.44,5.44,0,0,1-6.35-.62A7.87,7.87,0,0,1,63.09,232a14.66,14.66,0,0,1-.68-4.86,7.23,7.23,0,0,1,.47-2.76A13.32,13.32,0,0,1,65.6,221a6.53,6.53,0,0,0,1.21-1.81c.22-.51.15-1.6.51-1.9A6.42,6.42,0,0,1,69,220.87Z" transform="translate(-10.8 -11.62)"/><path class="cls-27" d="M63.64,226.23l.17,2.81a1.76,1.76,0,0,1-2.3,1.78l-2.08-.67,1.36-8Z" transform="translate(-10.8 -11.62)"/><path class="cls-11" d="M60.33,220.38a.93.93,0,0,1,1.2.28.8.8,0,0,1,0,1.16.93.93,0,0,1-1.2-.28A.8.8,0,0,1,60.33,220.38Z" transform="translate(-10.8 -11.62)"/><path class="cls-11" d="M64.72,226.46a2,2,0,0,0,1.26-.15c1.76-2.11,1-8.57,1-8.57l-2.17-1.38L61.54,218l-.73,4.15a3.54,3.54,0,0,0,.92,3.06h0A5.68,5.68,0,0,0,64.72,226.46Z" transform="translate(-10.8 -11.62)"/><path class="cls-28" d="M98.41,227.46a2.61,2.61,0,0,1,1.93.26,1.33,1.33,0,0,0,1.09,0s.22,0-1.15-.56a3.25,3.25,0,0,0-2.59-.16C97.06,227.36,97.18,227.82,98.41,227.46Z" transform="translate(-10.8 -11.62)"/><path class="cls-28" d="M77.86,235.67c4,.29,15.07-6,15.07-6s3.47-3.5-12.53,2.11C75.6,233.46,76.87,235.59,77.86,235.67Z" transform="translate(-10.8 -11.62)"/><path class="cls-28" d="M99.19,227.53l-.17-.32-1.21-.3a14,14,0,0,0-3,.82c-.78.44-4.18.93-4.57,1.1s-.52,2.15-.52,2.15,3.3-1.33,4.65-1.75a31,31,0,0,1,4-.49c.91-.24,1.39-.32,1.39-.32s-.2-.47-1.66-.17c-.39.08-.27-.39-.27-.39Z" transform="translate(-10.8 -11.62)"/><path class="cls-28" d="M97.63,227.92s0-.76.28-.82a17.08,17.08,0,0,1,2.19-.31c.4,0,2.27.39,2.27.39a2.7,2.7,0,0,1-1.38.19A12.22,12.22,0,0,0,97.63,227.92Z" transform="translate(-10.8 -11.62)"/><path class="cls-29" d="M85.29,229.22l-6.64,1.65s-15-.93-16.3.41a20.29,20.29,0,0,0-3,4.77l18.17.82,7.74-.77Z" transform="translate(-10.8 -11.62)"/><path class="cls-12" d="M66,216.91c.3,1.94-4.93,3.43-4.93,3.43l-.92-2.49,2.64-2.47,2.8.85A1.66,1.66,0,0,1,66,216.91Z" transform="translate(-10.8 -11.62)"/><path class="cls-12" d="M66,217.31c0,.75,1,1.8,1,1.8l.23-.86-.18-.65-.54-.41S66,216.56,66,217.31Z" transform="translate(-10.8 -11.62)"/><path class="cls-30" d="M81.21,257c-1.6,1-2.3,3-3.21,4.62a35.41,35.41,0,0,0-1.72-4.66c-1.23-3.1-3-6.56-4-9.74a50.41,50.41,0,0,1-1.93-9.2c.76.52,1.06,2.86,1.4,3.76q.76,2.05,1.72,4a45.35,45.35,0,0,0,4.6,7.53C78.37,253.63,81,257.1,81.21,257Z" transform="translate(-10.8 -11.62)"/><path class="cls-15" d="M74.23,260.92l3.7-2.69s-3.73-6.3-5-10.35-1.44-5.42-1.4-6.74.41-2.92-.64-4.23a79.25,79.25,0,0,0-6.42-6.28C64,230.32,74.23,260.92,74.23,260.92Z" transform="translate(-10.8 -11.62)"/><path class="cls-30" d="M75.79,262.44s-3.31-9.69-4.88-14.6-5.22-14.14-5.6-15.31A15.07,15.07,0,0,0,64,229.85a5.73,5.73,0,0,0-3.79-.56c-1.66.56-3.43,2.6-2.64,8.43.52,3.8,6.56,13.42,6.69,14.33s-2.33,9.1-2,11.31l.38,2.52S70.92,260.19,75.79,262.44Z" transform="translate(-10.8 -11.62)"/><path class="cls-11" d="M89.86,245.48c3.22.44,4.79-.84,6.13-1.12a23.47,23.47,0,0,0,2.7-.79c-.88,1.15-1.93,1-2.5,1.38s-.41.15.73.38c.65.13,1.93-.75,2.83-1.22a2.79,2.79,0,0,1,1.23-.38,13.42,13.42,0,0,1-2.15,1.65A16.46,16.46,0,0,1,95.32,247a13.86,13.86,0,0,1-4.39-.47C89.23,246,87.54,245.16,89.86,245.48Z" transform="translate(-10.8 -11.62)"/><path class="cls-11" d="M70.44,242.73s.25-1.26,7-.14a140.48,140.48,0,0,1,16.38,4.27L78,245.61S72,244.86,70.44,242.73Z" transform="translate(-10.8 -11.62)"/><path class="cls-29" d="M75.79,240.87s-6.28-1-6.62,2.43c-.19,2,1.08,2.92,3,3.19,3.54.51,7.59.91,7.59.91l2.94-4.8Z" transform="translate(-10.8 -11.62)"/><path class="cls-29" d="M72.44,239.82l-11-8.26s-1.7-.55-2.61.43c-1.31,1.41-1.43,2.47-.82,3.43,1.22,1.88.35,1.17,6.58,6.06,5.7,4.47,8,6.38,10.23,3.79C76.93,242.84,72.44,239.82,72.44,239.82Z" transform="translate(-10.8 -11.62)"/><path class="cls-11" d="M96.37,246.53a19,19,0,0,0,3-.65c.32-.18,1.67-1.29,1.67-1.29a3.43,3.43,0,0,0-1.5.48A28,28,0,0,1,96.37,246.53Z" transform="translate(-10.8 -11.62)"/><polygon class="cls-29" points="49.42 216.17 51.01 216.86 53.32 217.97 53.25 220.25 48.82 217.34 49.42 216.17"/><path class="cls-12" d="M63.1,228.64a11.16,11.16,0,0,0-1.39-3.5c-.56-.82-1.61-1.07-2.29-1.76a2.44,2.44,0,0,1-.54-2.53c.28-.74.94-1.4.83-2.19a1.12,1.12,0,0,0-.07-.25c1.39-1.53,2.82-3.41.7-3.6-2.86-.25-6.07,3.1-6.8,5.61a5.13,5.13,0,0,0,0,2.78s0,0,0,0a28.4,28.4,0,0,0,.78,3.35.66.66,0,0,1,0,.32c-.09.25-.4.32-.67.35a6.37,6.37,0,0,0-3.71,1.43A5.24,5.24,0,0,0,48.56,233a7.58,7.58,0,0,0,3.5,5.67,7,7,0,0,0,6.61.32,6.46,6.46,0,0,0,3.53-5.55,2.66,2.66,0,0,1,.07-.75,3.23,3.23,0,0,1,.4-.71A4.54,4.54,0,0,0,63.1,228.64Z" transform="translate(-10.8 -11.62)"/><polygon class="cls-31" points="102.42 234.22 74.4 232.84 75.75 193.71 97.61 194.78 103.47 201.24 102.42 234.22"/><polygon class="cls-25" points="97.61 194.78 103.47 201.24 97.31 200.94 97.61 194.78"/><rect class="cls-25" x="90.22" y="215.54" width="19.1" height="2.09" transform="translate(0.49 -16.47) rotate(2.95)"/><rect class="cls-25" x="90.14" y="232.36" width="19.1" height="2.09" transform="translate(1.35 -16.44) rotate(2.95)"/><rect class="cls-25" x="90.19" y="221.29" width="19.1" height="2.09" transform="translate(0.78 -16.46) rotate(2.95)"/><rect class="cls-25" x="90.17" y="226.82" width="19.1" height="2.09" transform="translate(1.07 -16.45) rotate(2.95)"/><path class="cls-12" d="M128.45,101.2s19.21-2.78,26.63-3.75c5.14-.68,4.53-8.05,2.35-8.86-6.63-2.44-26-1.34-26-1.34l-11.28,13.88S120.85,101,128.45,101.2Z" transform="translate(-10.8 -11.62)"/><path class="cls-18" d="M159.7,131.48l.93,3.85,4-.19s.19-.56.53-.58.67.52,1.06.5l2.13-.1,8-.39s.14-.83-.09-1.1a3.85,3.85,0,0,0-1.24-.46c-2.08-.47-8-2-9.14-3.9C164.45,126.8,159.7,131.48,159.7,131.48Z" transform="translate(-10.8 -11.62)"/><path class="cls-12" d="M156.83,92.78a51.68,51.68,0,0,1-6.84,5c-5.48,3.46,8.31,34.55,8.31,34.55l7.65-3.75-7.19-38.2Z" transform="translate(-10.8 -11.62)"/><path class="cls-18" d="M111.78,141.15c-.24.4.11,1.31.11,1.31s5.25-.18,6.86-.82a8.85,8.85,0,0,0,1.72-1.14c.11-.08.25-.51.36-.59s.33,0,.49-.1a5.9,5.9,0,0,0,.71-.66c.11-2.44-.64-3.3-.64-3.3s-4.61-.82-5.29.32C114.51,138.85,112.31,140.27,111.78,141.15Z" transform="translate(-10.8 -11.62)"/><path class="cls-12" d="M117.75,95.55a58.93,58.93,0,0,1,3.4,11.66c.84,4.79,1.67,16.44.44,29,0,.49-6.2,1-6.2,1s-6.6-29.59-8-34.42S107.42,94.14,117.75,95.55Z" transform="translate(-10.8 -11.62)"/><path class="cls-12" d="M135.26,99.9s-10.27,3-17.17,4.8c-2.53.65-5.81-6.21-6.15-6.48A5.36,5.36,0,0,0,108,97c1.28-1.86,8.91-4.54,16.84-7.67s9.36-2.1,9.36-2.1Z" transform="translate(-10.8 -11.62)"/><path class="cls-21" d="M144.79,59.35l-13.26-2.23-9.68.76-10,4.72s-3.09,2.87,1.22,10,4.83,19.25,4.83,19.25l27.21-3.11a222.69,222.69,0,0,1-.93-22.39C144.19,63.84,143.82,60.94,144.79,59.35Z" transform="translate(-10.8 -11.62)"/><path class="cls-11" d="M111.36,90.86l13.8-1.3s-12.3,8-12.89,7C108.93,91,111.36,90.86,111.36,90.86Z" transform="translate(-10.8 -11.62)"/><path class="cls-11" d="M117.64,61.86s-4.7-2.68-7.93,4.06c-4.73,9.88-6,19.83-6.51,22.73-.42,2.23.87,8.17,3.7,10.28.68.51,4.18-.49,4.18-.49l2.11-2-1.26-1.74-.27-1.48s1.94-7.67,4.61-15S117.64,61.86,117.64,61.86Z" transform="translate(-10.8 -11.62)"/><path class="cls-21" d="M111.82,62.6a29.13,29.13,0,0,0-4.48,9c-1.8,5.73-2.34,7.84-2.34,7.84l10,5,5.09-9.71-1.25-15.41Z" transform="translate(-10.8 -11.62)"/><path class="cls-32" d="M131.43,60.18a3.18,3.18,0,0,1-2.23,3.18l-3.58.53a3.18,3.18,0,0,1-3-2.41l-1.94-7.11c-.41-1.42,0-4.45,1.8-5.59a6.91,6.91,0,0,1,5.48-.8c2,.58,3.32,3.36,3.33,4.83Z" transform="translate(-10.8 -11.62)"/><path class="cls-11" d="M132.81,53.83l-.24-1.65A1.37,1.37,0,0,0,131.08,51l-.68-4.61a2.43,2.43,0,0,0-2.86-1.76l-5.78.85A2.43,2.43,0,0,0,119.53,48l.7,4.8a1.37,1.37,0,0,0-.5,1.26l.24,1.65a1.37,1.37,0,0,0,.84,1.07l.13.92A4.51,4.51,0,0,0,123.81,61a8.4,8.4,0,0,0,6.24-.92,4.52,4.52,0,0,0,1.78-4l-.11-.73A1.37,1.37,0,0,0,132.81,53.83Z" transform="translate(-10.8 -11.62)"/><polygon class="cls-33" points="118 36.85 118 36.85 118.02 36.84 118.02 36.84 118 36.85"/><path class="cls-33" d="M132.59,49.87a.77.77,0,0,0,.13-.27,2.77,2.77,0,0,0-.95-2.74l-.08-.54a2.23,2.23,0,0,0-.14-.5,1.68,1.68,0,0,0-.34-1,1.71,1.71,0,0,0-1.72-.58,2.84,2.84,0,0,0-5.41-.38l-.24,0a3.63,3.63,0,0,0-4.95.46,2.1,2.1,0,0,0-.13,2.64s0,.07,0,.1a1.45,1.45,0,0,0-1.63.79,2.71,2.71,0,0,0,0,2.08,3.4,3.4,0,0,0,.48.9,2.89,2.89,0,0,0-.45.91,2.54,2.54,0,0,0,.13,1.87,1.64,1.64,0,0,0,1.57.9,1.58,1.58,0,0,0,1.07-.35c.31-.29.59-1.24.3-1.39,1.61-.4,1.44-3.51,1.47-3.52a2.9,2.9,0,0,1,1.89-2.57c0-.07,0-.14,0-.2a2.88,2.88,0,0,0,3.24,2.25l2-.29h0l.53-.08-.53.08a1.58,1.58,0,0,1,1.79,1.33l.33,2.23,1.11-.36c.46,0,.29,1.85.39,2.2a.38.38,0,0,0,.09.18c.19.18.45-.13.51-.38C133.17,53.06,133.48,50.4,132.59,49.87Z" transform="translate(-10.8 -11.62)"/><path class="cls-11" d="M146.54,82.92l-12.42,7.34s9.57,0,15.25-2.09C153.21,86.77,146.69,82.73,146.54,82.92Z" transform="translate(-10.8 -11.62)"/><path class="cls-11" d="M140.8,59.37s4.73-2.11,7.83,4c4.75,9.41,5.79,18.52,5.62,20.52-.08.92-.26,4.09-5.76,5-2.23.38-2-4.55-2-4.55a105.68,105.68,0,0,1-4.57-10.52C139.34,67.2,140.8,59.37,140.8,59.37Z" transform="translate(-10.8 -11.62)"/><path class="cls-21" d="M144.79,59.35s2.35.35,4.34,5.06,4,11.25,4,11.25l-7.79,6.41-9.53-13,2.42-10.81Z" transform="translate(-10.8 -11.62)"/><path class="cls-34" d="M144.64,90.83v0l-.14-.86-27,4,.13.86a.06.06,0,0,0,0,0l.12.15a2.37,2.37,0,0,0,2.36.56l22.34-3.28c.94-.14,1.75-.39,2.1-1.21Z" transform="translate(-10.8 -11.62)"/><rect class="cls-35" x="122.07" y="92.12" width="18.06" height="0.62" transform="translate(-22.83 8.41) rotate(-8.35)"/><path class="cls-36" d="M144.51,90,142,72.34a.85.85,0,0,0-1-.72l-25.26,3.71a.86.86,0,0,0-.73,1L117.56,94Z" transform="translate(-10.8 -11.62)"/><path class="cls-34" d="M131.35,82.5a1.66,1.66,0,0,1-1.4,1.88,1.64,1.64,0,0,1-1.87-1.4,1.65,1.65,0,0,1,3.27-.48Z" transform="translate(-10.8 -11.62)"/></svg>