<?xml version="1.0" encoding="utf-8"?>
<!-- Generator: Adobe Illustrator 24.0.0, SVG Export Plug-In . SVG Version: 6.00 Build 0)  -->
<svg version="1.1" id="Capa_1" xmlns="http://www.w3.org/2000/svg" xmlns:xlink="http://www.w3.org/1999/xlink" x="0px" y="0px"
	 viewBox="0 0 259 137" style="enable-background:new 0 0 259 137;" xml:space="preserve">
<style type="text/css">
	.st0{fill:#FF7600;}
	.st1{fill:#FFBC08;}
</style>
<title>logotext</title>
<g id="Capa_2_1_">
	<g id="Capa_1-2">
		<g id="loto_text">
			<g id="logo">
				<g id="g">
					<path class="st0" d="M35,97c-20,0-19-6-19-6c0-3,3-4,3-4c1,1,10,2,10,2s25,2,25-25S28,39,28,39C14,39,3,46,3,63s8,20,8,20
						s-7,4-7,10c0,9,6,9,6,9c-2.1,1.6-4.1,3.2-6,5c-2,2-4,4-4,11c0,19,28,19,28,19s30,0,30-20S35,97,35,97z M29,48c0,0,12,1,12,16
						S29,79,29,79s-12,1-12-15C17,49,25,48,29,48z M28,127c0,0-15,0-15-10s9-11,15-11c0,0,16,0,16,11S28,127,28,127z"/>
				</g>
				<path id="o" class="st0" d="M124,69v14c0,0,0,6-7,13c-4.2,4.2-9.2,7.5-14.6,9.8c-0.2,0.1-0.5,0.2-0.8,0.2H87
					c-6.4-1.3-12.3-4.4-17-9c-7.5-7.5-7-15-7-15V64c0,0,0-9,9-18s19-7,19-7v13c0,0-6,0-10,4s-4,8-4,8v18c0,0,0,3,4,7s7,4,7,4h13
					c0,0,2.5-0.5,6-4c2-1.9,3.4-4.3,4-7V69H124z"/>
				<g id="hodas">
					<path class="st1" d="M96,39v13c0,0,7-1,11,3s4,10,4,10h13c0,0,0-12-7-19S96,39,96,39z"/>
					<path class="st1" d="M96,20v12c0,0,15.5-0.5,26,10c6.2,6.1,9.8,14.3,10,23h13c0,0,0-20-13-33S96,20,96,20z"/>
					<path class="st1" d="M96,0v12c15,0,32.5,5.5,45,18s12,35,12,35h13c0,0,5-19-17-45C149,20,131,0,96,0z"/>
					<circle id="circulo" class="st1" cx="94" cy="72" r="10"/>
				</g>
			</g>
			<g id="texto">
				<path id="w" d="M131.5,69.5h14l5,14l2-14h14l2,14l5-14h14l-12.7,35.1c-0.2,0.7-0.7,1.2-1.3,1.6c-1.5,0.9-4.6,2.1-7.4-0.1
					c-0.4-0.3-0.7-0.7-0.9-1.2L159,88l-4.6,16.6c-0.2,0.9-0.9,1.7-1.9,2c-2,0.7-5.4,1.4-7.5-0.6C142,103,131.5,69.5,131.5,69.5z"/>
				<g id="i">
					<path d="M196,69h12v34c0,0-2,4-6,4c-2.4,0-4.6-1.1-6-3V69"/>
					<path class="st1" d="M196,65h12c0,0,1-6-6-6S196,65,196,65z"/>
				</g>
				<g id="i-2">
					<path d="M247,69h12v34c0,0-2,4-6,4c-2.4,0-4.6-1.1-6-3V69"/>
					<path class="st1" d="M247,65h12c0,0,1-6-6-6S247,65,247,65z"/>
				</g>
				<path id="f" d="M239,36v10c0,0-7,0-9,2c-1.6,1.6-1,10-1,10h10v11h-10v35c-1.9,1.8-4.4,2.9-7,3c-2.4,0-4.6-1.1-6-3V51
					c0,0-0.5-4.5,5-10s9-5,9-5H239z"/>
			</g>
		</g>
	</g>
</g>
</svg>
